<?xml version="1.0" standalone="no"?>
<!DOCTYPE svg PUBLIC "-//W3C//DTD SVG 20010904//EN"
 "http://www.w3.org/TR/2001/REC-SVG-20010904/DTD/svg10.dtd">
<svg version="1.0" xmlns="http://www.w3.org/2000/svg"
 width="100.000000pt" height="50.000000pt" viewBox="0 0 100.000000 50.000000"
 preserveAspectRatio="xMidYMid meet">

<g transform="translate(0.000000,50.000000) scale(0.100000,-0.100000)"
fill="#000000" stroke="none">
<path d="M1 363 c1 -94 4 -120 8 -82 9 84 16 89 132 89 l99 0 0 35 c0 26 -6
39 -25 51 -23 15 -27 15 -49 0 -14 -9 -26 -27 -28 -43 -4 -37 -32 -37 -36 0
-2 20 5 35 27 57 l29 30 -79 0 -79 0 1 -137z"/>
<path d="M245 477 c18 -15 28 -36 32 -65 5 -38 8 -42 34 -42 34 0 42 -12 49
-70 l5 -44 45 -4 c54 -5 61 -9 37 -26 -9 -7 -17 -25 -17 -40 0 -16 -5 -26 -15
-26 -10 0 -15 10 -15 29 0 17 -6 31 -15 35 -13 5 -14 -7 -9 -91 9 -125 12
-123 -164 -123 -147 0 -166 10 -72 40 128 39 152 70 125 158 -9 27 -12 27 -50
2 -37 -25 -45 -25 -45 -1 0 30 -11 51 -26 51 -8 0 -14 -10 -14 -25 0 -32 -53
-91 -96 -107 -33 -12 -34 -13 -34 -70 l0 -58 500 0 500 0 0 55 0 55 -116 0
c-74 0 -113 4 -109 10 4 6 53 10 116 10 l109 0 0 32 c0 29 -1 30 -13 14 -19
-26 -59 -17 -68 14 l-7 25 -1 -27 c-1 -26 -2 -26 -73 -26 -40 0 -78 4 -85 10
-7 5 -13 5 -17 -1 -4 -5 -29 -10 -56 -9 -42 0 -49 3 -53 21 l-4 22 -2 -21 c-1
-21 -6 -22 -83 -20 -81 1 -83 2 -86 27 -4 36 22 57 50 40 16 -10 23 -10 35 0
11 10 19 10 34 1 16 -11 19 -9 19 8 0 11 7 20 15 20 8 0 15 -7 15 -15 0 -8 6
-12 14 -9 8 3 17 0 21 -6 5 -8 12 -5 22 9 12 18 21 20 56 15 23 -4 45 -11 48
-17 4 -5 20 -6 37 -2 18 4 33 2 37 -5 4 -7 11 -8 18 -2 19 15 107 9 117 -8 6
-10 10 37 10 133 l0 147 -391 0 -390 0 26 -23z m265 -354 c0 -7 -9 -13 -20
-13 -11 0 -20 6 -20 14 0 9 9 14 20 13 11 -1 20 -7 20 -14z m150 2 c0 -8 -4
-15 -10 -15 -5 0 -10 7 -10 15 0 8 5 15 10 15 6 0 10 -7 10 -15z m-200 -7 c0
-4 -13 -8 -30 -8 -16 0 -30 4 -30 9 0 5 14 9 30 9 17 -1 30 -5 30 -10z m80 2
c0 -5 -4 -10 -10 -10 -5 0 -10 5 -10 10 0 6 5 10 10 10 6 0 10 -4 10 -10z m40
0 c0 -5 -7 -10 -15 -10 -8 0 -15 5 -15 10 0 6 7 10 15 10 8 0 15 -4 15 -10z
m50 0 c0 -5 -4 -10 -10 -10 -5 0 -10 5 -10 10 0 6 5 10 10 10 6 0 10 -4 10
-10z m60 0 c0 -5 -4 -10 -10 -10 -5 0 -10 5 -10 10 0 6 5 10 10 10 6 0 10 -4
10 -10z m30 0 c0 -5 -4 -10 -10 -10 -5 0 -10 5 -10 10 0 6 5 10 10 10 6 0 10
-4 10 -10z m40 0 c0 -5 -7 -10 -15 -10 -8 0 -15 5 -15 10 0 6 7 10 15 10 8 0
15 -4 15 -10z"/>
<path d="M565 200 c-19 -8 -19 -9 3 -9 12 -1 22 4 22 9 0 6 -1 10 -2 9 -2 0
-12 -4 -23 -9z"/>
</g>
</svg>
